<?xml version="1.0" encoding="UTF-8" standalone="no"?>
<svg width="175px" height="145px" viewBox="0 0 175 145" version="1.1" xmlns="http://www.w3.org/2000/svg" xmlns:xlink="http://www.w3.org/1999/xlink" xmlns:sketch="http://www.bohemiancoding.com/sketch/ns">
    <!-- Generator: Sketch 3.1.1 (8761) - http://www.bohemiancoding.com/sketch -->
    <title>logo</title>
    <desc>Created with Sketch.</desc>
    <defs></defs>
    <g id="Page-1" stroke="none" stroke-width="1" fill="none" fill-rule="evenodd" sketch:type="MSPage">
        <g id="logo" sketch:type="MSLayerGroup">
            <g id="Rectangle-1-+-Rectangle-2" sketch:type="MSShapeGroup">
                <path d="M140,0 L162.502862,0 C163.87097,0 165,1.11994666 165,2.50147087 L165,142.498529 C165,143.8749 163.881993,145 162.502862,145 L7.49713831,145 C6.1290301,145 5,143.880053 5,142.498529 L5,2.50147087 C5,1.12509972 6.1180069,0 7.49713831,0 L30,0 L30,5 L140,5 L140,4.4408921e-16 Z" id="Rectangle-1" fill="#B88B3B"></path>
                <rect id="Rectangle-3" fill="#634521" x="15" y="62.5" width="137.5" height="70"></rect>
                <rect id="Rectangle-6" fill="#4D3616" x="15" y="57.5" width="137.5" height="10"></rect>
                <rect id="Rectangle-5" fill="#4D3616" x="15" y="92.5" width="137.5" height="10"></rect>
                <rect id="Rectangle-2" fill="#BD9839" x="0" y="35" width="170" height="25" rx="2.5"></rect>
            </g>
            <g id="Oval-1-+-Oval-3" transform="translate(5.000000, 117.500000)" sketch:type="MSShapeGroup">
                <circle id="Oval-1" fill="#B88B3B" cx="13.75" cy="13.75" r="13.75"></circle>
                <circle id="Oval-3" fill="#33402E" cx="13.75" cy="13.75" r="6.25"></circle>
            </g>
            <g id="Oval-2-+-Oval-4" transform="translate(137.500000, 117.500000)" sketch:type="MSShapeGroup">
                <circle id="Oval-2" fill="#B88B3B" cx="13.75" cy="13.75" r="13.75"></circle>
                <circle id="Oval-4" fill="#33402E" cx="13.75" cy="13.75" r="6.25"></circle>
            </g>
            <circle id="Oval-5" fill="#DFC572" sketch:type="MSShapeGroup" cx="152.5" cy="47.5" r="5"></circle>
            <circle id="Oval-6" fill="#DFC572" sketch:type="MSShapeGroup" cx="17.5" cy="47.5" r="5"></circle>
            <rect id="Rectangle-4" fill="#81572B" sketch:type="MSShapeGroup" x="30" y="5" width="110" height="30"></rect>
            <g id="Oval-8-+-Triangle-1" transform="translate(62.500000, 35.000000)" sketch:type="MSShapeGroup">
                <circle id="Oval-7" fill="#BD9839" cx="22.5" cy="22.5" r="22.5"></circle>
                <g transform="translate(15.000000, 10.000000)" fill="#38384A">
                    <circle id="Oval-8" cx="7.5" cy="7.5" r="7.5"></circle>
                    <polygon id="Triangle-1" points="7.5 5 15 25 0 25 "></polygon>
                </g>
            </g>
        </g>
    </g>
</svg>