<?xml version="1.0" encoding="UTF-8" standalone="no"?>
<svg width="214px" height="119px" viewBox="0 0 214 119" version="1.1" xmlns="http://www.w3.org/2000/svg" xmlns:xlink="http://www.w3.org/1999/xlink" xmlns:sketch="http://www.bohemiancoding.com/sketch/ns">
    <!-- Generator: Sketch 3.1.1 (8761) - http://www.bohemiancoding.com/sketch -->
    <title>lodestones</title>
    <desc>Created with Sketch.</desc>
    <defs></defs>
    <g id="Page-1" stroke="none" stroke-width="1" fill="none" fill-rule="evenodd" sketch:type="MSPage">
        <g id="lodestones" sketch:type="MSLayerGroup">
            <path d="M0,97.5 L18.5,86.5 L80,79.5 L138,70.5 L213.5,97 L201,106.5 L189,115.5 L144.5,114.5 L138.5,93.5 L117.5,92.5 L108,97 L61.5,117.5 L21.5,112.5 L0,97.5 Z" id="Path-24" fill-opacity="0.419525589" fill="#000000" sketch:type="MSShapeGroup"></path>
            <path d="M42.5,115.5 L14,102.5 L1.5,67 L17,29 L21.5,20.5 L32,13.5 L65.5,34 L65.5,31.5 L104.5,0.5 L142,4 L160,19.5 L170,32 L174,46 L172.5,57.5 L204.5,66 L212,77.5 L191,114.5 L184.5,116.5 L147,116 L139,88.5 L117.5,93.5 L111,88 L110.5,105 L97.5,117 L73.5,118.5 L42.5,115.5 Z" id="Path-11" fill="#282A36" sketch:type="MSShapeGroup"></path>
            <path d="M97,116.5 L74.5,116 L34.5,94 L22.5,42 L62.5,50 L94,78.5 L97,116.5 Z" id="Path-12" fill="#434450" sketch:type="MSShapeGroup"></path>
            <path d="M143.5,57 L106,28 L105.5,0.5 L142,3.5 L161,21 L170.5,32.5 L174,46.5 L143.5,57 Z" id="Path-13" fill="#434551" sketch:type="MSShapeGroup"></path>
            <path d="M191,113.5 L184.5,115.5 L169,88 L178,75 L204,71 L212.5,78 L191,113.5 Z" id="Path-14" fill="#434551" sketch:type="MSShapeGroup"></path>
            <path d="M22.5,105.5 L33,94.5 L23,42 L2,67.5 L14,102 L22.5,105.5 Z" id="Path-15" fill="#545567" sketch:type="MSShapeGroup"></path>
            <path d="M147,115 L138.5,85 L169,88 L147,115 Z" id="Path-16" fill="#555567" sketch:type="MSShapeGroup"></path>
            <path d="M177,75 L158,57.5 L173,57.5 L204.5,65.5 L204.5,71 L177,75 Z" id="Path-17" fill="#555567" sketch:type="MSShapeGroup"></path>
            <path d="M117.5,92.5 L143.5,56.5 L106,29 L106,55 L117.5,92.5 Z" id="Path-18" fill="#555567" sketch:type="MSShapeGroup"></path>
            <path d="M61,49 L55,27 L32.5,13 L22,20 L16,30.5 L23.5,42.5 L61,49 Z" id="Path-19" fill="#555567" sketch:type="MSShapeGroup"></path>
            <path d="M64.5,32 L105.5,0 L106,29 L95,26.5 L64.5,32 Z" id="Path-20" fill="#777789" sketch:type="MSShapeGroup"></path>
            <path d="M56,28 L64,50.5 L88,69 L95.5,80.5 L104,68.5 L77.5,40 L56,28 Z" id="Path-21" fill="#777789" sketch:type="MSShapeGroup"></path>
            <path d="M176,76 L168.5,88 L138,84.5 L159.5,57.5 L176,76 Z" id="Path-22" fill="#777789" sketch:type="MSShapeGroup"></path>
            <path d="M2,67 L16.5,30 L19.5,46 L2,67 Z" id="Path-23" fill="#777789" sketch:type="MSShapeGroup"></path>
            <path d="M106,0.5 L135.5,5.5 L161.5,21 L142,3.5 L106,0.5 Z" id="Path-25" fill="#777789" sketch:type="MSShapeGroup"></path>
            <g id="Group" transform="translate(104.000000, 98.000000)" sketch:type="MSShapeGroup">
                <path d="M3,15 L0,11.5 L3,5 L10.5,0 L26,5 L24.5,15 L14.25,17.5 L3,15 Z" id="Path-26" fill="#282A36"></path>
                <path d="M24.5,15 L22,8.5 L26,5 L24.5,15 Z" id="Path-27" fill="#434551"></path>
                <path d="M14.5,17.5 L3,15 L10,9.5 L22,8.5 L14.5,17.5 Z" id="Path-28" fill="#555567"></path>
                <path d="M10,9.5 L22,8.5 L10.5,0 L3,5 L10,9.5 Z" id="Path-29" fill="#434551"></path>
                <path d="M22,8.5 L10.5,0 L26,5 L22,8.5 Z" id="Path-30" fill="#777789"></path>
            </g>
        </g>
    </g>
</svg>