<?xml version="1.0" encoding="UTF-8" standalone="no"?>
<svg width="167px" height="165px" viewBox="0 0 167 165" version="1.1" xmlns="http://www.w3.org/2000/svg" xmlns:xlink="http://www.w3.org/1999/xlink" xmlns:sketch="http://www.bohemiancoding.com/sketch/ns">
    <title>piratechest seed map</title>
    <desc>This map is designed to be seeded as a torrent by the piratechest application in order to bootstrap peer discovery.</desc>
    <defs></defs>
    <g id="Page-1" stroke="none" stroke-width="1" fill="none" fill-rule="evenodd" sketch:type="MSPage">
        <g id="map" sketch:type="MSLayerGroup" transform="translate(1.000000, 1.000000)">
            <path d="M160.5,1 C155,1.14283583e-14 116,-1 110.5,2.5 C105,6 98,6.5 98,6.5 C98,6.5 93.5,4 90.5,2 C87.5,7.44648787e-12 79,0 79,0 C79,0 78.5,7 75.5,7 C72.5,7 70.5,0 70.5,0 L65,0 C65,0 66,10.5 58.5,10.5 C51,10.5 54.5,0.5 54.5,0.5 L33.5,0 L30,6.5 L28.5,0 L18,0.5 L0,26 L-0.5,42 C-0.5,42 7.5,45 7.5,48.5 C7.5,52 6,56 6,56 L0.5,57.5 L0,79.5 C0,79.5 3.5,84.5 3.5,89 C3.5,93.5 0,98.5 0,98.5 L0,159 C0,161.5 3,163 6,163 C9,163 23.5,162.5 23.5,162.5 L26.5,159 L27,156.5 L36.5,162 L58,162 C58,162 59,159.5 61.5,159.5 C64,159.5 66,163 66,163 L99,163 C99,163 99.5,154.5 105,154.5 C110.5,154.5 117.5,163 117.5,163 L134,163 L164.5,100.5 L165,54.5 C165,54.5 160,53 160,39.5 C160,26 165.5,26 165.5,26 C165.5,26 165,5.5 165,3 C165,0.5 166,2 160.5,1 Z" id="Path-31" stroke-opacity="0.653334466" stroke="#745141" fill="#C8AC6E" sketch:type="MSShapeGroup"></path>
            <path d="M69.1494141,18.3798828 C55.8759994,19.1690363 57.4564678,43.820876 75.4072266,25.8701172 C78.7818294,22.4955143 76.3954517,21.0391622 74.1855469,19.1767578 L69.1494141,18.3798828 Z" id="Path-32" stroke="#A38856" stroke-width="2" fill="#E7BB62" sketch:type="MSShapeGroup"></path>
            <path d="M74.4707031,41.8701172 C37.3077032,59.8394931 45.2119927,30.7195692 24.5068359,72.1298828 C2.5345318,116.074491 41.2558594,101.968813 41.2558594,136.139648 C41.2558594,139.745764 54.6623545,148.430987 57.8203125,145.125 C65.374351,137.216866 59.6636738,118.773144 71.6904297,112.759766 C74.211525,111.499218 73.9472656,123.097684 73.9472656,124.798828 C73.9472656,138.162954 71.4164734,134.525131 82.1474609,139.890625 C85.5901865,141.611988 86.8450447,118.184165 90.7841797,115.999023 C102.158306,109.689495 128.429441,117.425051 131.076172,114.77832 C134.258065,111.596427 128.63775,97.520344 130.529297,91.8457031 C132.180304,86.8926829 138.568085,90.0767213 140.649414,85.9140625 C145.791054,75.6307816 140.307833,61.1932444 133.321289,54.5195313 C130.336953,51.6688225 121.676326,57.8547446 117.967773,55.3916016 C115.797793,53.9503458 114.654642,37.26896 113.954102,34.4667969 C109.879149,18.1669861 83.4424974,35.8993755 79.2451172,40.2763672 L74.4707031,41.8701172 Z" id="Path-33" stroke="#A38856" stroke-width="2" fill="#E7BB62" sketch:type="MSShapeGroup"></path>
            <path d="M14.5,26.5 L18,1 L0,26 L14.5,26.5 Z" id="Path-34" stroke-opacity="0.611752717" stroke="#745141" fill="#A6863F" sketch:type="MSShapeGroup"></path>
            <path d="M120,142.5 L123,138.5 L133.5,137.5 L133,128.5 L163.5,102 L136,159 L120,142.5 Z" id="Path-35" stroke-opacity="0.611752717" stroke="#745141" fill="#A6863F" sketch:type="MSShapeGroup"></path>
            <path d="M57.5,95 L48,95 L48,90 L57.5,90 L57.5,80.5 L62.5,80.5 L62.5,90 L72,90 L72,95 L62.5,95 L62.5,104.5 L57.5,104.5 L57.5,95 Z" id="Rectangle-9" fill="#B41111" sketch:type="MSShapeGroup" transform="translate(60.000000, 92.500000) rotate(-315.000000) translate(-60.000000, -92.500000) "></path>
            <polygon id="Triangle-2" fill="#745142" sketch:type="MSShapeGroup" points="84.5 54 89 61 80 61 "></polygon>
            <polygon id="Triangle-3" fill="#745142" sketch:type="MSShapeGroup" points="93.5 64 98 71 89 71 "></polygon>
            <polygon id="Triangle-4" fill="#745142" sketch:type="MSShapeGroup" points="104.5 54 109 61 100 61 "></polygon>
            <path d="M42.8417969,56.5058594 C28.8753738,60.3865392 56.149663,67.5042547 47.9658203,56.046875 L42.8417969,56.5058594 Z" id="Path-36" stroke="#A38856" stroke-width="2" fill="#C8AE70" sketch:type="MSShapeGroup"></path>
            <path id="Path-37" stroke="#979797" sketch:type="MSShapeGroup" d=""></path>
            <path d="M85,18.7376953 C85,18.7376953 96.5,12.7376953 118.5,16.2376953 C140.5,19.7376953 156.5,27.7376953 156.5,27.7376953" id="Path-38" stroke="#B41212" stroke-width="5" stroke-dasharray="12,10" sketch:type="MSShapeGroup"></path>
            <g id="Star-2-+-Star-1-+-Oval-9" transform="translate(19.000000, 138.000000) rotate(-315.000000) translate(-19.000000, -138.000000) translate(10.000000, 129.000000)" stroke="#4F4736" sketch:type="MSShapeGroup">
                <polygon id="Star-2" fill="#C8AC6E" transform="translate(9.264706, 8.735294) rotate(-315.000000) translate(-9.264706, -8.735294) " points="9.26470588 11.125565 4.95967342 13.0403266 6.87443499 8.73529412 4.95967342 4.43026166 9.26470588 6.34502323 13.5697383 4.43026166 11.6549768 8.73529412 13.5697383 13.0403266 "></polygon>
                <polygon id="Star-1" fill="#000000" points="9 10.6234482 2.63603897 15.363961 7.3765518 9 2.63603897 2.63603897 9 7.3765518 15.363961 2.63603897 10.6234482 9 15.363961 15.363961 "></polygon>
                <circle id="Oval-9" fill="#E5D7B7" cx="9.26470588" cy="8.73529412" r="3.97058824"></circle>
            </g>
        </g>
    </g>
</svg>