<?xml version="1.0" encoding="UTF-8" standalone="no"?>
<svg width="167px" height="86px" viewBox="0 0 167 86" version="1.1" xmlns="http://www.w3.org/2000/svg" xmlns:xlink="http://www.w3.org/1999/xlink" xmlns:sketch="http://www.bohemiancoding.com/sketch/ns">
    <!-- Generator: Sketch 3.1.1 (8761) - http://www.bohemiancoding.com/sketch -->
    <title>note</title>
    <desc>Created with Sketch.</desc>
    <defs></defs>
    <g id="Page-1" stroke="none" stroke-width="1" fill="none" fill-rule="evenodd" sketch:type="MSPage">
        <g id="note" sketch:type="MSLayerGroup" transform="translate(0.000000, 1.000000)">
            <path d="M161.5,0.515337423 C156,5.8894607e-15 117,-0.515337423 111.5,1.28834356 C106,3.09202454 99,3.34969325 99,3.34969325 C99,3.34969325 94.5,2.06134969 91.5,1.03067485 C88.5,3.83745387e-12 80,0 80,0 C80,0 79.5,3.60736196 76.5,3.60736196 C73.5,3.60736196 71.5,0 71.5,0 L66,0 C66,0 67,5.41104294 59.5,5.41104294 C52,5.41104294 55.5,0.257668712 55.5,0.257668712 L34.5,0 L31,3.34969325 L29.5,0 L19,0.257668712 L1,13.398773 L0.5,21.6441718 C0.5,21.6441718 8.5,23.190184 8.5,24.993865 C8.5,26.797546 7,28.8588957 7,28.8588957 L1.5,29.6319018 L1,40.9693252 C1,40.9693252 4.5,43.5460123 4.5,45.8650307 C4.5,48.1840491 1,50.7607362 1,50.7607362 L1,81.9386503 C1,83.2269939 4,84 7,84 C10,84 24.5,83.7423313 24.5,83.7423313 L27.5,81.9386503 L28,80.6503067 L37.5,83.4846626 L59,83.4846626 C59,83.4846626 60,82.196319 62.5,82.196319 C65,82.196319 67,84 67,84 L100,84 C100,84 100.5,79.6196319 106,79.6196319 C111.5,79.6196319 118.5,84 118.5,84 L135,84 L165.5,51.791411 L166,28.0858896 C166,28.0858896 161,27.3128834 161,20.3558282 C161,13.398773 166.5,13.398773 166.5,13.398773 C166.5,13.398773 166,2.83435583 166,1.54601227 C166,0.257668712 167,1.03067485 161.5,0.515337423 Z" id="Path-31" stroke-opacity="0.653334466" stroke="#745141" fill="#C8AC6E" sketch:type="MSShapeGroup"></path>
            <path d="M15.5,13.6564417 L19,0.515337423 L1,13.398773 L15.5,13.6564417 Z" id="Path-34" stroke-opacity="0.611752717" stroke="#745141" fill="#A6863F" sketch:type="MSShapeGroup"></path>
            <path d="M132,67.4355828 L135,65.3742331 L145.5,64.8588957 L145,60.2208589 L164.5,52.5644172 L137,81.9386503 L132,67.4355828 Z" id="Path-35" stroke-opacity="0.611752717" stroke="#745141" fill="#A6863F" sketch:type="MSShapeGroup"></path>
            <text id="This-chest-has-been-" opacity="0.798041045" sketch:type="MSTextLayer" font-family="Lucida Blackletter" font-size="10" font-weight="686" fill="#363125">
                <tspan x="27" y="27">This chest has been </tspan>
                <tspan x="27" y="40">especiallly crafted to store </tspan>
                <tspan x="27" y="53">magnets. Long live The </tspan>
                <tspan x="27" y="66">Pirate Bay.</tspan>
            </text>
        </g>
    </g>
</svg>